<?xml version="1.0" encoding="UTF-8"?>
<svg id="Layer_1" data-name="Layer 1" xmlns="http://www.w3.org/2000/svg" version="1.1" viewBox="0 0 841.9 595.3">
  <defs>
    <style>
      .cls-1 {
        fill: #061838;
      }

      .cls-1, .cls-2 {
        stroke-width: 0px;
      }

      .cls-2 {
        fill: #f7b432;
      }
    </style>
  </defs>
  <path class="cls-2" d="M82.4,361.8v-174h44.8c20.7,0,36.1,3.1,46.3,9.2,12.8,7.9,19.2,20.3,19.2,37.1s-4.8,28.8-14.5,36.1c8.8,3.7,15.2,8.8,19.3,15.4s6.1,15.2,6.2,25.9c0,14.7-3.9,25.7-11.4,32.9-7.5,7.2-17.3,12-29.5,14.3-12.2,2.1-27.3,3.2-45.3,3.2h-35.1ZM113.3,216.1v40.9h2c17.5,0,29.1-1,34.9-2.9,7.7-2.7,11.6-8.6,11.6-17.6s-4-14.9-11.9-17.6c-5.7-1.8-16.9-2.8-33.7-2.8h-2.9ZM113.3,286.8v46.6h8.8c18.6,0,31.6-1.4,39.2-4.4,7.6-3,11.4-9.2,11.4-18.4s-3.7-15.5-11-18.7c-7.3-3.4-18.8-5.1-34.6-5.1h-13.9.1Z"/>
  <path class="cls-1" d="M241.4,292.3c-4.1-6-10.5-10.7-19.3-14.1,9.7-6.7,14.5-17.6,14.5-32.9s-6.4-26.6-19.2-33.8c-10.2-5.6-25.6-8.4-46.3-8.4h-44.8v54.1s26.1,0,31-7.2v-21c-.1,0,2.8,0,2.8,0,16.7,0,27.9.8,33.7,2.5,7.9,2.5,11.9,7.8,11.9,16.1s-10.9,22.6-27.6,22.6c10.6,5.3,17.3,9.8,21.8,20.4,0,0,17.4,9.5,17.8,21.5.2,8.4-4.8,17-12.4,19.8-7.6,2.8-20.6,4.1-39.2,4h-8.8v-45.7c-13.6-3.9-30.7-3.3-30.9-3.3v75h35.1c18,0,33.1-1,45.3-2.9,12.2-2.1,22-6.4,29.5-13s11.3-16.6,11.4-30c0-9.7-2.2-17.6-6.2-23.6h0Z"/>
  <path class="cls-1" d="M319.2,361.6c-19.7,0-35.7-6.7-47.9-20.1-12.2-13.4-18.3-30.3-18.3-50.8s6.3-37.5,18.8-51.1c12.5-13.6,28.7-20.3,48.5-20.3s35.7,6.8,47.7,20.3c12.1,13.6,18.1,30.5,18.1,50.8s-6.3,37.3-18.8,50.8c-12.5,13.6-28.6,20.3-48.1,20.3h0ZM293.2,260.4c-6.2,7.6-9.3,17.3-9.3,29.3s3.1,22,9.4,30.1,15.2,12.1,26.7,12c11.5,0,20.2-3.8,26.2-11.2,6-7.4,9-17.3,9-29.6s-3-22.4-9-30.4c-6-7.9-14.8-11.8-26.5-11.8s-20.4,3.9-26.6,11.5h0Z"/>
  <path class="cls-1" d="M399.3,221.9h26.1l3,10.7c13.3-8.9,27.5-13.3,42.6-13.3s27.4,4.1,36.7,12.3c9.4,8.2,14.1,20.3,14.1,36.4v91h-30.9v-81.9c0-9.6-2.9-16.7-8.7-21.3-5.7-4.6-13.6-6.9-23.6-6.9s-19.5,2.8-28.5,8.5v101.5h-30.9v-137.1h.1Z"/>
  <path class="cls-1" d="M657.7,358.9h-26.1l-3.2-10.7c-13.3,8.9-27.5,13.4-42.5,13.4s-27.3-4.1-36.7-12.3c-9.4-8.2-14.1-20.3-14.1-36.4v-91h30.9v81.8c0,9.5,2.9,16.6,8.8,21.2,5.9,4.7,13.7,7,23.5,7s19.3-2.8,28.5-8.4v-101.5h30.9v137.1-.2Z"/>
  <path class="cls-1" d="M721.9,329.4c4.4-2.6,6.6-6.3,6.6-11.1s-1.6-8.6-4.8-11.6-10.8-6.2-22.8-9.6c-12.1-3.5-20.6-9.4-25.7-17.5-2.9-4.5-4.4-10.6-4.4-18.3,0-13.4,4.5-23.5,13.5-30.4,8.9-6.8,19.6-10.3,32.2-10.3s23.5,1.7,32.7,5.1v27.6l-1.6,1.2c-7.8-3.7-15.4-5.5-22.6-5.5s-12.9,1.1-17,3.2c-4.1,2.1-6.2,4.8-6.2,8.2s1.4,6.2,3.8,8.2c2.5,1.9,6.1,3.7,11,5.4l13.8,4.7c19.4,6.6,29.1,19.4,29.1,38.4s-5.1,26.5-15.5,34.3-22.8,11.6-37,11.6-26.3-3.2-36-9.5v-29.1l1.1-.8c11.8,6.4,23.1,9.6,33.9,9.6s11.7-1.2,16.1-3.8h-.2Z"/>
</svg>