<?xml version="1.0" encoding="UTF-8"?>
<svg id="Laag_2" data-name="Laag 2" xmlns="http://www.w3.org/2000/svg" xmlns:xlink="http://www.w3.org/1999/xlink" viewBox="0 0 961.93 1014.93">
  <defs>
    <style>
      .cls-1, .cls-2 {
        fill: none;
      }

      .cls-3 {
        fill: #f7b432;
      }

      .cls-4 {
        fill: #061838;
      }

      .cls-2 {
        clip-path: url(#clippath);
      }
    </style>
    <clipPath id="clippath">
      <rect class="cls-1" width="961.93" height="1014.93"/>
    </clipPath>
  </defs>
  <g id="Laag_1-2" data-name="Laag 1">
    <g class="cls-2">
      <g>
        <path class="cls-3" d="m0,1014.93V0h261.23c120.44,0,210.37,18.2,269.79,54.07,74.41,46.57,111.88,118.3,111.88,216.26s-28.37,168.08-84.58,210.37c51.39,21.41,88.86,51.39,112.41,89.93,23.55,38.54,35.86,88.86,36.4,150.95,0,85.65-22.48,149.88-66.38,191.64-43.89,42.29-101.17,69.59-171.83,82.97-71.19,12.31-158.98,18.74-263.9,18.74H0ZM179.86,165.41v238.74h11.78c102.24,0,169.69-5.89,203.41-17.13,44.97-15.52,67.98-49.78,67.98-102.78s-23.02-87.25-69.05-102.78c-33.19-10.71-99.03-16.06-196.45-16.06h-17.66Zm0,412.18v271.93h51.39c108.13,0,184.68-8.03,228.57-25.69,43.89-17.66,66.38-53.53,66.38-107.59s-21.41-90.47-63.7-109.2c-42.82-19.81-109.74-29.44-201.81-29.44h-80.83Z"/>
        <path class="cls-4" d="m927.14,609.7c-23.55-35.33-61.02-62.63-112.41-82.44,56.21-39.08,84.58-102.78,84.58-192.17s-37.47-154.7-111.88-197.53c-59.42-32.65-149.35-49.25-269.79-49.25h-261.23v315.29s152.56,0,180.4-41.75v-122.58c-.53,0,16.06,0,16.06,0,97.42,0,163.27,4.82,196.46,14.99,46.04,14.45,69.05,45.5,69.05,93.68s-63.17,131.68-161.12,132.22c61.56,30.51,100.64,57.28,126.87,118.84,0,0,101.71,55.14,103.85,125.26,1.61,49.25-27.84,99.03-72.27,115.62-44.43,16.06-120.44,24.09-228.57,23.55h-51.39v-266.58c-79.22-23.02-178.79-19.27-180.4-19.27v437.34h204.48c104.92,0,193.24-5.89,263.9-17.13,71.19-12.31,128.47-37.47,171.83-76.01,43.89-38.54,65.84-96.89,66.38-175.04,0-56.74-12.31-102.78-36.4-137.57l1.61.54Z"/>
      </g>
    </g>
  </g>
</svg>