<?xml version="1.0" encoding="UTF-8"?>
<svg id="Laag_2" data-name="Laag 2" xmlns="http://www.w3.org/2000/svg" xmlns:xlink="http://www.w3.org/1999/xlink" viewBox="0 0 483 125">
  <defs>
    <style>
      .cls-1, .cls-2 {
        fill: none;
      }

      .cls-3 {
        fill: #f7b432;
      }

      .cls-4 {
        fill: #061838;
      }

      .cls-2 {
        clip-path: url(#clippath);
      }
    </style>
    <clipPath id="clippath">
      <rect class="cls-1" width="483" height="125"/>
    </clipPath>
  </defs>
  <g id="Laag_1-2" data-name="Laag 1">
    <g class="cls-2">
      <g>
        <path class="cls-3" d="m0,124.14V0h31.96c14.77,0,25.75,2.21,33.03,6.56,9.13,5.64,13.7,14.48,13.7,26.47s-3.42,20.55-10.34,25.76c6.28,2.64,10.84,6.28,13.77,10.99,2.92,4.71,4.35,10.84,4.42,18.48,0,10.49-2.78,18.34-8.13,23.47-5.35,5.14-12.34,8.56-21.04,10.2-8.7,1.5-19.47,2.28-32.31,2.28H0v-.07ZM22.04,20.19v29.18h1.43c12.48,0,20.76-.71,24.9-2.07,5.49-1.93,8.27-6.14,8.27-12.56s-2.85-10.63-8.49-12.56c-4.07-1.28-12.06-2-24.04-2h-2.07Zm0,50.44v33.25h6.28c13.27,0,22.54-1,27.96-3.14,5.42-2.14,8.13-6.56,8.13-13.13s-2.64-11.06-7.85-13.34c-5.21-2.43-13.41-3.64-24.68-3.64h-9.92.07Z"/>
        <path class="cls-4" d="m113.42,74.56c-2.92-4.28-7.49-7.63-13.77-10.06,6.92-4.78,10.34-12.56,10.34-23.47s-4.57-18.98-13.7-24.12c-7.28-4-18.26-5.99-33.03-5.99h-31.96v38.6s18.62,0,22.11-5.14v-14.98c-.07,0,2,0,2,0,11.91,0,19.9.57,24.04,1.78,5.64,1.78,8.49,5.56,8.49,11.49s-7.78,16.12-19.69,16.12c7.56,3.78,12.34,6.99,15.55,14.55,0,0,12.41,6.78,12.7,15.34.14,5.99-3.42,12.13-8.85,14.13-5.42,2-14.69,2.93-27.96,2.85h-6.28v-32.61c-9.7-2.78-21.9-2.35-22.04-2.35v53.51h25.04c12.84,0,23.61-.71,32.31-2.07,8.7-1.5,15.69-4.57,21.04-9.28,5.35-4.71,8.06-11.84,8.13-21.4,0-6.92-1.57-12.56-4.42-16.84l-.07-.07Z"/>
        <path class="cls-4" d="m168.92,124c-14.05,0-25.47-4.78-34.17-14.34-8.7-9.56-13.05-21.62-13.05-36.24s4.49-26.76,13.41-36.46c8.92-9.7,20.47-14.48,34.6-14.48s25.47,4.85,34.03,14.48c8.63,9.7,12.91,21.76,12.91,36.24s-4.49,26.61-13.41,36.24c-8.92,9.7-20.4,14.48-34.31,14.48v.07Zm-18.55-72.2c-4.42,5.42-6.63,12.34-6.63,20.9s2.21,15.7,6.71,21.48c4.49,5.78,10.84,8.63,19.05,8.56,8.2,0,14.41-2.71,18.69-7.99,4.28-5.28,6.42-12.34,6.42-21.12s-2.14-15.98-6.42-21.69c-4.28-5.64-10.56-8.42-18.9-8.42s-14.55,2.78-18.97,8.2l.07.07Z"/>
        <path class="cls-4" d="m226.06,24.33h18.62l2.14,7.63c9.49-6.35,19.62-9.49,30.39-9.49s19.54,2.93,26.18,8.78c6.71,5.85,10.06,14.48,10.06,25.97v64.93h-22.04v-58.43c0-6.85-2.07-11.91-6.21-15.2-4.07-3.28-9.7-4.92-16.83-4.92s-13.91,2-20.33,6.06v72.42h-22.04V24.26l.07.07Z"/>
        <path class="cls-4" d="m410.38,122.07h-18.62l-2.28-7.63c-9.49,6.35-19.62,9.56-30.32,9.56s-19.47-2.93-26.18-8.78c-6.7-5.85-10.06-14.48-10.06-25.97V24.33h22.04v58.36c0,6.78,2.07,11.84,6.28,15.13,4.21,3.35,9.77,4.99,16.76,4.99s13.77-2,20.33-5.99V24.4h22.04v97.82-.14Z"/>
        <path class="cls-4" d="m456.18,101.03c3.14-1.85,4.71-4.49,4.71-7.92s-1.14-6.14-3.42-8.28c-2.28-2.14-7.71-4.42-16.27-6.85-8.63-2.5-14.69-6.71-18.33-12.49-2.07-3.21-3.14-7.56-3.14-13.06,0-9.56,3.21-16.77,9.63-21.69,6.35-4.85,13.98-7.35,22.97-7.35s16.76,1.21,23.33,3.64v19.69l-1.14.86c-5.56-2.64-10.98-3.92-16.12-3.92s-9.2.78-12.13,2.28c-2.92,1.5-4.42,3.42-4.42,5.85s1,4.42,2.71,5.85c1.78,1.36,4.35,2.64,7.85,3.85l9.84,3.35c13.84,4.71,20.76,13.84,20.76,27.4,0,10.77-3.64,18.91-11.06,24.47-7.42,5.57-16.26,8.28-26.39,8.28s-18.76-2.28-25.68-6.78v-20.76l.78-.57c8.42,4.57,16.48,6.85,24.18,6.85,4.49,0,8.35-.86,11.49-2.71h-.14Z"/>
      </g>
    </g>
  </g>
</svg>